<?xml version="1.0" standalone="no"?>
<!DOCTYPE svg PUBLIC "-//W3C//DTD SVG 20010904//EN"
 "http://www.w3.org/TR/2001/REC-SVG-20010904/DTD/svg10.dtd">
<svg version="1.0" xmlns="http://www.w3.org/2000/svg"
 width="700.000000pt" height="700.000000pt" viewBox="0 0 700.000000 700.000000"
 preserveAspectRatio="xMidYMid meet">
<metadata>
Created by potrace 1.14, written by Peter Selinger 2001-2017
</metadata>
<g transform="translate(0.000000,700.000000) scale(0.100000,-0.100000)"
fill="#000000" stroke="none">
<path d="M3391 6568 c-100 -38 -191 -161 -191 -258 0 -26 -4 -29 -49 -39 -26
-6 -91 -24 -144 -41 -118 -38 -137 -57 -137 -140 0 -54 -2 -58 -27 -65 -58
-14 -197 -91 -278 -153 -167 -128 -287 -309 -350 -527 -29 -100 -54 -253 -56
-338 -1 -30 -5 -60 -8 -66 -4 -6 -89 -94 -190 -197 -101 -102 -189 -198 -197
-212 -10 -19 -14 -66 -14 -159 0 -126 -1 -133 -20 -134 -26 -1 -85 -1 -109 0
-10 1 -30 20 -47 46 -125 199 -429 126 -449 -108 -9 -105 44 -196 142 -243 50
-23 65 -26 120 -21 72 7 127 37 170 93 56 73 62 75 180 65 8 -1 12 -43 15
-141 3 -134 4 -141 28 -164 22 -22 233 -122 456 -217 70 -30 72 -32 84 -77 33
-130 90 -265 154 -367 18 -27 35 -55 38 -60 4 -7 -60 -10 -185 -10 -213 0
-287 -6 -397 -36 -232 -63 -449 -231 -572 -444 -78 -137 -116 -270 -124 -445
-4 -69 -8 -126 -9 -128 -2 -2 -34 -10 -71 -18 -221 -46 -423 -228 -512 -462
-31 -80 -81 -299 -89 -388 -8 -91 18 -112 262 -202 280 -104 742 -239 980
-286 11 -3 65 -14 120 -25 144 -29 334 -63 428 -76 32 -5 101 -15 137 -20 14
-2 54 -6 90 -10 36 -4 76 -8 90 -10 44 -6 123 -14 205 -21 44 -3 100 -7 125
-10 71 -6 414 -17 525 -17 108 0 438 12 495 17 19 2 73 7 120 11 159 13 236
21 420 46 204 28 202 28 230 34 14 3 39 7 55 10 40 6 63 10 244 46 439 87 928
231 1259 371 82 35 112 67 112 120 0 31 -4 56 -25 173 -3 17 -8 46 -11 65 -24
161 -130 366 -241 463 -20 18 -48 42 -62 55 -46 40 -179 101 -261 118 l-80 17
-1 76 c-1 208 -56 391 -165 558 -107 162 -294 303 -487 367 -123 40 -197 49
-424 50 l-212 1 17 25 c77 116 130 233 173 382 19 64 27 79 48 86 14 5 67 28
116 51 50 23 153 70 230 104 184 83 185 84 185 257 0 93 3 129 13 132 10 4 74
3 135 -1 6 -1 12 -8 12 -16 0 -28 79 -102 132 -125 166 -71 352 68 333 249
-14 131 -114 221 -244 221 -88 -1 -177 -54 -216 -131 -11 -21 -23 -28 -56 -31
-23 -2 -56 -2 -75 0 l-34 4 0 137 c0 155 2 150 -89 242 -278 281 -314 319
-316 340 -1 13 -6 65 -10 114 -35 453 -269 785 -667 949 -37 15 -38 16 -38 69
0 78 -20 99 -133 136 -50 17 -115 35 -143 41 l-52 11 -6 51 c-25 188 -225 304
-405 236z"/>
</g>
</svg>
